<svg xmlns="http://www.w3.org/2000/svg" width="81" height="37" fill="none" viewBox="0 0 81 37"><path fill="#F2F1F1" d="M2.73325 0.0356445C3.80212 0.0356445 4.41036 0.497125 4.55797 1.42009L6.33942 11.5998L6.74661 17.9621H7.06218L7.46937 11.5998L9.25082 1.42009C9.41199 0.498822 10.027 0.0373412 11.0959 0.0356445H13.8291V25.1948H10.6887V18.0156L11.1595 7.95801H10.7803L9.67073 15.9084L8.0776 25.1948H5.75154L4.14823 15.9084L3.05391 7.95801H2.67218L3.14299 18.0156V25.1948H0V0.0356445H2.73325Z"/><path fill="#F2F1F1" d="M20.6444 5.5708C21.9881 5.5708 23.0909 5.87619 23.9528 6.48698C24.3618 6.75284 24.6963 7.11855 24.9247 7.54958C25.1532 7.98061 25.268 8.46274 25.2584 8.95047V25.1311H22.1637L22.4182 23.3191L22.0212 23.0774C21.5122 24.4465 20.4883 25.1311 18.9495 25.1311C17.979 25.1311 17.2469 24.8851 16.7532 24.3931C16.5025 24.1237 16.3093 23.806 16.1855 23.4595C16.0617 23.1129 16.0098 22.7448 16.033 22.3775V16.6234C16.013 16.2542 16.0687 15.8847 16.1964 15.5377C16.3242 15.1907 16.5215 14.8734 16.7761 14.6053C17.2698 14.1167 18.0028 13.8698 18.9724 13.8698C20.5112 13.8698 21.5351 14.5544 22.0441 15.9236L22.4284 16.4326L21.9652 14.0225V8.95047C21.9636 8.81353 21.9282 8.67912 21.862 8.55923C21.7958 8.43933 21.701 8.33768 21.586 8.26334C21.3054 8.08211 20.9784 7.98571 20.6444 7.98571C20.3103 7.98571 19.9834 8.08211 19.7028 8.26334C19.5874 8.33734 19.4924 8.43892 19.4262 8.55889C19.36 8.67886 19.3247 8.81344 19.3236 8.95047V11.4954H16.033V8.95047C16.0228 8.46294 16.1372 7.98088 16.3652 7.54982C16.5932 7.11877 16.9273 6.75297 17.336 6.48698C18.1979 5.87619 19.3007 5.5708 20.6444 5.5708ZM20.5502 16.7252C20.2464 16.7059 19.9457 16.7962 19.7028 16.9797C19.6041 17.0575 19.5245 17.157 19.4702 17.2704C19.416 17.3837 19.3884 17.5081 19.3897 17.6338V21.922C19.3884 22.0473 19.416 22.1713 19.4703 22.2842C19.5246 22.3972 19.6041 22.4962 19.7028 22.5735C19.9457 22.757 20.2464 22.8472 20.5502 22.828C20.8988 22.8427 21.2419 22.7376 21.5224 22.5302C21.6442 22.436 21.7418 22.3141 21.8073 22.1748C21.8728 22.0354 21.9042 21.8825 21.899 21.7286V17.8272C21.9042 17.6733 21.8728 17.5203 21.8073 17.381C21.7418 17.2416 21.6442 17.1198 21.5224 17.0255C21.2422 16.8172 20.8991 16.7112 20.5502 16.7252Z"/><path fill="#F2F1F1" d="M30.053 0.0279541V9.67069C30.0553 9.75541 30.0801 9.83798 30.1248 9.90997C30.1695 9.98196 30.2326 10.0408 30.3075 10.0804C30.5214 10.2006 30.7648 10.2579 31.0099 10.2458C31.2897 10.2553 31.5668 10.1885 31.8115 10.0524C31.9059 10.0051 31.9852 9.93238 32.0405 9.84247C32.0958 9.75256 32.1249 9.649 32.1246 9.54344V0.0279541H34.7229V11.5336H32.2798L32.4885 10.4545H32.1755C31.7785 11.2689 30.9734 11.6761 29.7603 11.6761C28.9968 11.6761 28.4208 11.5302 28.0323 11.2384C27.8437 11.1015 27.6916 10.9204 27.5895 10.7109C27.4875 10.5014 27.4385 10.27 27.447 10.0372V0.0279541H30.053Z"/><path fill="#F2F1F1" d="M32.4172 13.824C33.1807 13.824 33.7558 13.9665 34.1452 14.2464C34.3317 14.3746 34.483 14.5476 34.5853 14.7494C34.6876 14.9513 34.7375 15.1756 34.7305 15.4018V18.5245H32.1322V15.7607C32.129 15.6781 32.1037 15.598 32.0589 15.5286C32.0142 15.4592 31.9516 15.4031 31.8777 15.3662C31.6625 15.2501 31.4195 15.1955 31.1753 15.2084C30.8962 15.1964 30.6189 15.2578 30.3711 15.3866C30.2789 15.4298 30.2007 15.4981 30.1454 15.5836C30.0901 15.669 30.0598 15.7683 30.0581 15.8701V25.0318H27.4546V13.9639H29.8977L29.689 14.9997H30.0021C30.3991 14.2159 31.2041 13.824 32.4172 13.824Z"/><path fill="#F2F1F1" d="M52.6725 5.66749V8.55853H49.4634V25.1209H46.3229V8.55853H43.1138V5.66749H46.3229V0.00756836H49.4634V5.66749H52.6725Z"/><path fill="#F2F1F1" d="M53.7719 5.66753V8.55857H55.7341V22.263V25.154H58.8796V20.5325V5.66753H53.7719ZM51.876 0.0126953V3.34146H58.8644V0.0126953H51.876Z"/><path fill="#F2F1F1" d="M36.9294 5.66753V25.154H40.0724V8.55857H42.0218V5.66753H36.9294ZM36.9294 0.0126953V3.34146H43.8975V0.0126953H36.9294Z"/><path fill="#F2F1F1" d="M64.239 0V20.8252C64.2288 21.1522 64.3403 21.4715 64.552 21.721C64.6578 21.8414 64.7894 21.9365 64.937 21.999C65.0846 22.0616 65.2444 22.0901 65.4046 22.0823C65.5869 22.0879 65.7683 22.0542 65.9365 21.9835C66.1047 21.9128 66.2557 21.8068 66.3793 21.6726C66.6413 21.3681 66.7761 20.9744 66.7559 20.5732V0H69.8989V25.1439H66.9315L67.186 22.7873L66.8068 22.5328C66.325 24.3143 65.3511 25.205 63.8853 25.205C62.9614 25.205 62.2667 24.8869 61.7959 24.2455C61.3251 23.6042 61.0884 22.7339 61.0884 21.6217V0H64.239Z"/><path fill="#F2F1F1" d="M76.6024 -4.97866e-05C77.7665 -0.0406706 78.8999 0.37796 79.7581 1.16553C80.5861 1.94088 81.0001 2.98261 81.0001 4.2907V8.58145H77.8571V4.2907C77.8605 4.12812 77.8301 3.9666 77.7679 3.81635C77.7057 3.6661 77.613 3.53039 77.4957 3.41779C77.3786 3.30062 77.2392 3.20806 77.0858 3.14556C76.9324 3.08306 76.7681 3.05189 76.6024 3.05387C76.437 3.04949 76.2724 3.07856 76.1184 3.13935C75.9645 3.20013 75.8244 3.29138 75.7066 3.40761C75.5889 3.51992 75.496 3.65558 75.4337 3.8059C75.3715 3.95622 75.3414 4.11788 75.3452 4.28052V4.89385C75.3452 5.38502 75.3452 5.84311 75.3758 6.2732C75.3957 6.6966 75.4537 7.11735 75.5488 7.5304C75.6469 7.9531 75.7894 8.36427 75.9738 8.75705C76.1912 9.20671 76.4539 9.63307 76.7577 10.0295L78.8929 12.9027C79.3333 13.4788 79.7273 14.089 80.0712 14.7275C80.3456 15.2466 80.5566 15.7969 80.6998 16.3664C80.8411 16.9395 80.9263 17.5251 80.9543 18.1148C80.9848 18.7281 81.0026 19.433 81.0026 20.2296V20.8429C81.0026 22.151 80.5886 23.1927 79.7607 23.9681C78.8798 24.7202 77.7595 25.1334 76.6012 25.1334C75.4429 25.1334 74.3225 24.7202 73.4416 23.9681C72.6137 23.191 72.1997 22.1493 72.1997 20.8429V16.542H75.3427V20.8429C75.3385 21.0056 75.3685 21.1674 75.4308 21.3177C75.493 21.4681 75.5861 21.6037 75.7041 21.7158C75.9464 21.9403 76.2645 22.065 76.5948 22.065C76.9251 22.065 77.2432 21.9403 77.4855 21.7158C77.603 21.6033 77.6958 21.4676 77.758 21.3174C77.8202 21.1671 77.8505 21.0055 77.8469 20.8429V20.2296C77.8469 19.5552 77.8342 18.9775 77.8138 18.4965C77.7959 18.0376 77.7328 17.5815 77.6255 17.135C77.5096 16.6815 77.3387 16.2439 77.1165 15.832C76.8213 15.2949 76.4807 14.7841 76.0985 14.305L73.9582 11.4012C73.5937 10.9072 73.2783 10.3788 73.0166 9.82338C72.7891 9.33303 72.6101 8.82161 72.4822 8.29642C72.3537 7.76876 72.2745 7.23032 72.2455 6.68802C72.215 6.12475 72.1997 5.53093 72.1997 4.90657V4.2907C72.1997 2.98261 72.6128 1.94088 73.4391 1.16553C74.299 0.375833 75.4357 -0.0429739 76.6024 -4.97866e-05Z"/><path fill="#F2F1F1" d="M25.2634 0.0101318H16.0278V3.34144H25.2634V0.0101318Z"/><path fill="#F2F1F1" d="M4.94481 29.7477H6.38015V29.8291L4.03373 36.3263H2.47623L0.119629 29.8291V29.7477H1.60587L3.28043 34.8655L4.94481 29.7477Z"/><path fill="#F2F1F1" d="M7.55078 36.3263V29.7477H8.90723V36.3263H7.55078Z"/><path fill="#F2F1F1" d="M10.1262 35.6749L10.7599 34.6722C11.2899 35.0437 11.9173 35.2517 12.5643 35.2702C12.8703 35.2863 13.1754 35.2232 13.4499 35.087C13.5503 35.0361 13.6341 34.9575 13.6914 34.8606C13.7487 34.7636 13.777 34.6524 13.7731 34.5398C13.7778 34.4081 13.7413 34.2783 13.6688 34.1683C13.5704 34.0467 13.4449 33.9499 13.3023 33.8858C13.1267 33.7942 12.8646 33.6771 12.5134 33.5346L12.2869 33.443C11.9351 33.3083 11.5947 33.1457 11.2689 32.9569C11.0194 32.8077 10.8084 32.602 10.653 32.3563C10.4925 32.0756 10.414 31.7555 10.4265 31.4325C10.4147 31.0624 10.5377 30.7006 10.7726 30.4145C11.0098 30.1363 11.3175 29.9271 11.6634 29.8088C12.0365 29.6792 12.4289 29.6138 12.8238 29.6154C13.213 29.6191 13.5992 29.6826 13.9691 29.8037C14.369 29.933 14.7479 30.1199 15.0939 30.3585L14.4526 31.351C14.1886 31.1814 13.9081 31.039 13.6153 30.926C13.3623 30.8355 13.0951 30.7907 12.8264 30.7937C12.5772 30.7766 12.3285 30.8333 12.1113 30.9566C12.0347 31.0008 11.971 31.0641 11.9264 31.1404C11.8817 31.2167 11.8578 31.3034 11.8568 31.3917C11.8549 31.5033 11.8898 31.6124 11.956 31.7022C12.0525 31.8185 12.1733 31.9123 12.3098 31.9771C12.5494 32.0992 12.7968 32.2055 13.0503 32.2952L13.2667 32.3766C13.6154 32.5074 13.9555 32.6604 14.2846 32.8347C14.5496 32.9813 14.7749 33.19 14.9412 33.443C15.1263 33.7716 15.2176 34.1448 15.205 34.5218C15.1924 34.8988 15.0765 35.2651 14.87 35.5807C14.6349 35.888 14.3171 36.1219 13.9538 36.2551C13.5334 36.4094 13.0883 36.4853 12.6406 36.4791C11.7361 36.5 10.8507 36.2168 10.1262 35.6749Z"/><path fill="#F2F1F1" d="M16.5955 36.3263V29.7477H17.9646V36.3263H16.5955Z"/><path fill="#F2F1F1" d="M24.5737 29.7477V30.9769H22.5378V36.3212H21.1635V30.9769H19.1123V29.7477H24.5737Z"/><path fill="#F2F1F1" d="M35.1939 29.7477V36.3263H33.8273V32.2341C33.7035 32.5718 33.5573 32.9008 33.3895 33.219L32.2749 35.5094H31.1882L30.0531 33.219C29.8893 32.8989 29.7431 32.5702 29.6154 32.2341V36.3263H28.2488V29.7477H29.6943L31.1627 32.6311C31.2747 32.855 31.379 33.0815 31.4783 33.3157C31.5775 33.5498 31.6564 33.7534 31.7175 33.929C31.868 33.4816 32.0552 33.0475 32.2774 32.6311L33.7687 29.7477H35.1939Z"/><path fill="#F2F1F1" d="M40.3855 29.7477L42.6963 36.2449V36.3263H41.1999L40.6909 34.7536H38.3139L37.8049 36.3263H36.3289V36.2449L38.6371 29.7477H40.3855ZM38.6829 33.5931H40.3066L39.4846 31.0863L38.6829 33.5931Z"/><path fill="#F2F1F1" d="M44.638 36.0973C44.2348 35.8637 43.9172 35.5069 43.732 35.0793C43.5368 34.6228 43.4406 34.1302 43.4496 33.6338V29.7477H44.8162V33.4735C44.7888 33.9395 44.9062 34.4026 45.1521 34.7994C45.3761 35.1115 45.7663 35.2685 46.3228 35.2702C46.8521 35.2702 47.2254 35.1132 47.4425 34.7994C47.6733 34.4341 47.787 34.007 47.7683 33.5753V29.7579H49.1349V33.6262C49.1593 34.1964 49.0292 34.7627 48.7583 35.2651C48.525 35.6728 48.1687 35.9962 47.7403 36.1889C47.2668 36.3906 46.7559 36.4895 46.2413 36.479C45.6822 36.4996 45.1279 36.3676 44.638 36.0973Z"/><path fill="#F2F1F1" d="M55.8052 36.2449V36.3263H54.2324L52.6189 33.929H52.0794V36.3263H50.7102V29.7477H52.8607C53.3498 29.7367 53.8354 29.8331 54.2833 30.0302C54.6328 30.1828 54.9282 30.4374 55.1307 30.7605C55.3175 31.079 55.4134 31.4425 55.4081 31.8116C55.4189 32.2342 55.3018 32.6502 55.0722 33.0052C54.8283 33.3522 54.4809 33.6132 54.0797 33.7508L55.8052 36.2449ZM52.0794 32.8448H52.6953C53.0241 32.8647 53.351 32.783 53.6318 32.6107C53.7451 32.5203 53.8344 32.4033 53.8917 32.2701C53.9489 32.137 53.9724 31.9917 53.9601 31.8472C53.9696 31.7158 53.9481 31.584 53.8973 31.4624C53.8464 31.3408 53.7677 31.2329 53.6674 31.1474C53.4288 30.9786 53.1398 30.896 52.8479 30.9132H52.0845L52.0794 32.8448Z"/><path fill="#F2F1F1" d="M57.0063 36.3263V29.7477H58.373V36.3263H57.0063Z"/><path fill="#F2F1F1" d="M64.9898 29.7477V30.9769H62.9539V36.3212H61.5872V30.9769H59.5386V29.7477H64.9898Z"/><path fill="#F2F1F1" d="M66.1682 36.3263V29.7477H67.5348V36.3263H66.1682Z"/><path fill="#F2F1F1" d="M70.3112 36.0973C69.9073 35.8639 69.5889 35.5071 69.4027 35.0793C69.2075 34.6228 69.1112 34.1302 69.1202 33.6338V29.7477H70.4945V33.4735C70.4671 33.9395 70.5845 34.4026 70.8304 34.7994C71.0544 35.1115 71.4446 35.2685 72.0011 35.2702C72.5304 35.2702 72.902 35.1124 73.1208 34.7994C73.3516 34.4341 73.4653 34.007 73.4466 33.5753V29.7579H74.8208V33.6262C74.8452 34.1964 74.7151 34.7627 74.4442 35.2651C74.2109 35.6728 73.8546 35.9962 73.4262 36.1889C72.9519 36.3908 72.4401 36.4897 71.9247 36.479C71.3621 36.5015 70.8041 36.3695 70.3112 36.0973Z"/><path fill="#F2F1F1" d="M75.8694 35.6749L76.5031 34.6722C77.0331 35.0437 77.6604 35.2517 78.3074 35.2702C78.6134 35.2855 78.9183 35.2225 79.1931 35.087C79.2931 35.0356 79.3766 34.9569 79.4338 34.8601C79.491 34.7633 79.5196 34.6522 79.5163 34.5398C79.521 34.4081 79.4845 34.2783 79.4119 34.1683C79.3125 34.0479 79.1872 33.9513 79.0455 33.8858C78.8699 33.7942 78.6077 33.6771 78.2565 33.5346L78.0275 33.443C77.676 33.3078 77.3356 33.1452 77.0095 32.9569C76.7608 32.8076 76.5506 32.6019 76.3962 32.3563C76.2345 32.0761 76.1559 31.7557 76.1697 31.4325C76.1578 31.0624 76.2808 30.7006 76.5158 30.4145C76.7529 30.1363 77.0606 29.9271 77.4065 29.8088C77.7796 29.6792 78.172 29.6138 78.567 29.6154C78.9553 29.6189 79.3408 29.6824 79.7097 29.8037C80.11 29.9319 80.4891 30.1189 80.8345 30.3585L80.1958 31.351C79.9315 31.1819 79.651 31.0395 79.3585 30.926C79.1053 30.836 78.8383 30.7912 78.5696 30.7937C78.3212 30.7771 78.0735 30.8337 77.857 30.9566C77.7828 31.0023 77.7216 31.0664 77.6793 31.1426C77.6369 31.2188 77.6149 31.3046 77.6152 31.3917C77.6134 31.5033 77.6482 31.6124 77.7145 31.7022C77.8105 31.819 77.9313 31.9129 78.0682 31.9771C78.3072 32.0988 78.5537 32.2051 78.8062 32.2952L79.0226 32.3766C79.3715 32.5071 79.7115 32.6601 80.0405 32.8347C80.3052 32.9807 80.5298 33.1896 80.6946 33.443C80.8809 33.7711 80.973 34.1443 80.9609 34.5215C80.9488 34.8987 80.8328 35.2652 80.6259 35.5807C80.3901 35.8884 80.0713 36.1223 79.7071 36.2551C79.2877 36.4097 78.8434 36.4856 78.3965 36.4791C77.4876 36.5031 76.5972 36.2197 75.8694 35.6749Z"/></svg>