<svg width="474" height="214" viewBox="0 0 474 214" fill="none" xmlns="http://www.w3.org/2000/svg">
<path d="M15.9946 0.208509C22.2495 0.208509 25.8088 2.90902 26.6726 8.31006L37.0973 67.8803L39.4801 105.112H41.3268L43.7096 67.8803L54.1344 8.31006C55.0776 2.91895 58.6766 0.218438 64.9315 0.208509H80.9261V147.436H62.5487V105.424L65.3038 46.569H63.0848L56.5917 93.0933L47.2689 147.436H33.6572L24.2749 93.0933L17.8711 46.569H15.6372L18.3923 105.424V147.436H0V0.208509H15.9946Z" fill="#E02127"/>
<path d="M120.808 32.5998C128.671 32.5998 135.125 34.3869 140.168 37.9611C142.562 39.5169 144.519 41.657 145.856 44.1793C147.192 46.7016 147.864 49.523 147.808 52.3771V147.064H129.699L131.188 136.46L128.865 135.046C125.886 143.058 119.894 147.064 110.889 147.064C105.21 147.064 100.926 145.624 98.0372 142.745C96.57 141.169 95.4396 139.31 94.715 137.282C93.9904 135.254 93.6867 133.099 93.8226 130.95V97.2781C93.7059 95.1173 94.0314 92.9555 94.7792 90.9248C95.5269 88.8942 96.6811 87.0375 98.1712 85.4683C101.06 82.609 105.349 81.1644 111.023 81.1644C120.029 81.1644 126.02 85.1705 128.999 93.1827L131.248 96.1612L128.537 82.0579V52.3771C128.528 51.5758 128.32 50.7892 127.933 50.0876C127.546 49.386 126.991 48.7911 126.318 48.3561C124.676 47.2956 122.763 46.7314 120.808 46.7314C118.853 46.7314 116.94 47.2956 115.298 48.3561C114.623 48.7892 114.066 49.3836 113.679 50.0857C113.292 50.7877 113.085 51.5752 113.079 52.3771V67.2696H93.8226V52.3771C93.7632 49.5241 94.4323 46.7032 95.7665 44.1807C97.1007 41.6583 99.0559 39.5177 101.448 37.9611C106.491 34.3869 112.945 32.5998 120.808 32.5998ZM120.257 97.8738C118.479 97.761 116.719 98.2894 115.298 99.3631C114.72 99.8185 114.254 100.4 113.937 101.064C113.619 101.727 113.458 102.455 113.466 103.19V128.284C113.458 129.018 113.62 129.743 113.937 130.404C114.255 131.065 114.72 131.645 115.298 132.097C116.719 133.171 118.479 133.699 120.257 133.586C122.297 133.672 124.304 133.057 125.946 131.844C126.658 131.292 127.23 130.579 127.613 129.764C127.996 128.948 128.18 128.053 128.15 127.153V104.322C128.18 103.422 127.996 102.527 127.613 101.711C127.23 100.896 126.658 100.183 125.946 99.6311C124.306 98.4122 122.298 97.792 120.257 97.8738Z" fill="#E02127"/>
<path d="M175.866 0.163862V56.5917C175.879 57.0875 176.025 57.5707 176.286 57.992C176.548 58.4133 176.917 58.7575 177.355 58.9894C178.607 59.6926 180.032 60.0282 181.465 59.9574C183.103 60.013 184.725 59.6217 186.157 58.8256C186.709 58.5486 187.173 58.1231 187.496 57.597C187.82 57.0708 187.99 56.4648 187.988 55.8471V0.163862H203.194V67.4931H188.897L190.118 61.1786H188.286C185.963 65.9442 181.252 68.3271 174.153 68.3271C169.685 68.3271 166.315 67.4732 164.041 65.7655C162.937 64.9649 162.047 63.9048 161.45 62.6789C160.853 61.4531 160.566 60.099 160.616 58.7362V0.163862H175.866Z" fill="#E02127"/>
<path d="M189.701 80.8963C194.168 80.8963 197.534 81.7303 199.813 83.3685C200.904 84.1185 201.79 85.1306 202.388 86.312C202.987 87.4933 203.279 88.806 203.238 90.1297V108.403H188.033V92.2295C188.014 91.7466 187.866 91.2775 187.604 90.8714C187.342 90.4653 186.976 90.1371 186.543 89.9212C185.284 89.2417 183.862 88.9222 182.433 88.9978C180.8 88.9275 179.177 89.287 177.727 90.0403C177.188 90.2936 176.73 90.693 176.406 91.1931C176.083 91.6933 175.906 92.2742 175.895 92.8699V146.483H160.66V81.7154H174.957L173.736 87.7767H175.568C177.891 83.1898 182.602 80.8963 189.701 80.8963Z" fill="#E02127"/>
<path d="M308.232 33.1658V50.0837H289.452V147.004H271.075V50.0837H252.295V33.1658H271.075V0.0447485H289.452V33.1658H308.232Z" fill="#E02127"/>
<path d="M314.665 33.1658V50.0838H326.147V130.28V147.198H344.555V120.153V33.1658H314.665ZM303.57 0.0745659V19.554H344.465V0.0745659H303.57Z" fill="#E02127"/>
<path d="M216.105 33.1658V147.198H234.498V50.0838H245.905V33.1658H216.105ZM216.105 0.0745659V19.554H256.881V0.0745659H216.105Z" fill="#E02127"/>
<path d="M375.917 0.000100732V121.866C375.857 123.78 376.51 125.648 377.749 127.108C378.368 127.813 379.138 128.369 380.002 128.735C380.865 129.101 381.801 129.268 382.738 129.223C383.805 129.255 384.866 129.058 385.851 128.644C386.835 128.231 387.718 127.61 388.442 126.825C389.975 125.043 390.764 122.739 390.646 120.391V0.000100732H409.038V147.138H391.673L393.163 133.348L390.944 131.859C388.124 142.284 382.425 147.496 373.847 147.496C368.441 147.496 364.375 145.634 361.62 141.881C358.865 138.128 357.48 133.035 357.48 126.527V0.000100732H375.917Z" fill="#E02127"/>
<path d="M448.266 -1.38953e-05C455.078 -0.237721 461.711 2.21204 466.733 6.82077C471.578 11.358 474 17.4541 474 25.1088V50.2177H455.608V25.1088C455.628 24.1574 455.45 23.2122 455.086 22.333C454.722 21.4538 454.18 20.6596 453.493 20.0007C452.808 19.315 451.993 18.7734 451.095 18.4077C450.197 18.0419 449.235 17.8595 448.266 17.871C447.298 17.8454 446.335 18.0156 445.434 18.3713C444.533 18.727 443.713 19.2609 443.024 19.9411C442.335 20.5983 441.791 21.3922 441.427 22.2718C441.063 23.1515 440.886 24.0975 440.909 25.0493V28.6384C440.909 31.5126 440.909 34.1933 441.088 36.7101C441.205 39.1878 441.544 41.6499 442.101 44.067C442.675 46.5406 443.508 48.9467 444.588 51.2452C445.86 53.8766 447.397 56.3716 449.174 58.6915L461.669 75.5052C464.247 78.8765 466.552 82.447 468.565 86.1832C470.17 89.2212 471.405 92.4413 472.243 95.774C473.07 99.128 473.569 102.555 473.732 106.005C473.911 109.594 474.015 113.719 474.015 118.381V121.97C474.015 129.625 471.593 135.721 466.748 140.258C461.593 144.659 455.037 147.077 448.259 147.077C441.48 147.077 434.924 144.659 429.769 140.258C424.924 135.711 422.502 129.615 422.502 121.97V96.8015H440.894V121.97C440.87 122.922 441.045 123.869 441.41 124.748C441.774 125.628 442.319 126.422 443.009 127.078C444.427 128.392 446.288 129.122 448.221 129.122C450.154 129.122 452.016 128.392 453.434 127.078C454.121 126.42 454.664 125.626 455.028 124.746C455.392 123.867 455.569 122.921 455.549 121.97V118.381C455.549 114.434 455.474 111.054 455.355 108.239C455.25 105.553 454.881 102.885 454.253 100.272C453.575 97.6178 452.575 95.0571 451.274 92.6465C449.547 89.5039 447.554 86.5146 445.317 83.711L432.793 66.7186C430.659 63.8278 428.814 60.7353 427.282 57.4852C425.951 54.6158 424.904 51.623 424.155 48.5497C423.403 45.4619 422.94 42.3111 422.77 39.1376C422.591 35.8414 422.502 32.3665 422.502 28.7128V25.1088C422.502 17.4541 424.92 11.358 429.755 6.82077C434.787 2.1996 441.438 -0.2512 448.266 -1.38953e-05Z" fill="#E02127"/>
<path d="M147.838 0.0595616H93.7925V19.5539H147.838V0.0595616Z" fill="#E02127"/>
<path d="M28.9365 174.079H37.3359V174.556L23.6049 212.576H14.4907L0.700195 174.556V174.079H9.39744L19.1967 204.028L28.9365 174.079Z" fill="#F2F1F1"/>
<path d="M44.186 212.576V174.079H52.1238V212.576H44.186Z" fill="#F2F1F1"/>
<path d="M59.2573 208.764L62.9656 202.896C66.067 205.07 69.7382 206.287 73.5244 206.396C75.3154 206.49 77.1005 206.121 78.707 205.324C79.2947 205.026 79.7851 204.566 80.1202 203.999C80.4553 203.431 80.6212 202.78 80.5983 202.122C80.6258 201.351 80.4124 200.591 79.9877 199.947C79.4123 199.236 78.6777 198.67 77.8432 198.294C76.8156 197.758 75.2817 197.073 73.2265 196.239L71.9011 195.703C69.8429 194.915 67.8509 193.964 65.9441 192.858C64.484 191.985 63.2495 190.782 62.3401 189.344C61.4005 187.702 60.9412 185.828 61.0146 183.938C60.9452 181.772 61.665 179.655 63.04 177.981C64.4278 176.353 66.2283 175.129 68.2524 174.436C70.4358 173.678 72.732 173.295 75.0434 173.305C77.3206 173.326 79.5809 173.698 81.7451 174.407C84.0853 175.163 86.3028 176.257 88.3276 177.653L84.5747 183.461C83.0299 182.469 81.3882 181.635 79.675 180.974C78.1942 180.445 76.6309 180.182 75.0583 180.2C73.6001 180.1 72.1447 180.431 70.8735 181.153C70.4255 181.412 70.0526 181.782 69.7914 182.229C69.5303 182.675 69.39 183.182 69.3843 183.7C69.3735 184.353 69.5775 184.991 69.9651 185.516C70.5298 186.197 71.2363 186.746 72.0351 187.125C73.4375 187.839 74.8851 188.461 76.3689 188.986L77.6347 189.463C79.6757 190.228 81.6654 191.124 83.5917 192.144C85.142 193.001 86.4606 194.223 87.434 195.703C88.5171 197.626 89.0511 199.81 88.9775 202.016C88.904 204.222 88.2258 206.366 87.017 208.213C85.6412 210.011 83.7815 211.38 81.6557 212.159C79.1959 213.062 76.5913 213.506 73.9712 213.47C68.678 213.592 63.4969 211.935 59.2573 208.764Z" fill="#F2F1F1"/>
<path d="M97.1143 212.576V174.079H105.126V212.576H97.1143Z" fill="#F2F1F1"/>
<path d="M143.802 174.079V181.272H131.888V212.546H123.846V181.272H111.842V174.079H143.802Z" fill="#F2F1F1"/>
<path d="M205.949 174.079V212.576H197.952V188.629C197.228 190.605 196.372 192.531 195.391 194.392L188.868 207.796H182.509L175.866 194.392C174.908 192.52 174.052 190.596 173.305 188.629V212.576H165.308V174.079H173.767L182.36 190.952C183.015 192.263 183.625 193.588 184.206 194.958C184.787 196.328 185.249 197.52 185.606 198.547C186.487 195.93 187.582 193.389 188.883 190.952L197.61 174.079H205.949Z" fill="#F2F1F1"/>
<path d="M236.33 174.079L249.852 212.1V212.576H241.096L238.117 203.373H224.207L221.229 212.576H212.591V212.1L226.099 174.079H236.33ZM226.367 196.582H235.868L231.058 181.913L226.367 196.582Z" fill="#F2F1F1"/>
<path d="M261.215 211.236C258.856 209.869 256.997 207.781 255.913 205.279C254.771 202.608 254.208 199.725 254.26 196.82V174.079H262.258V195.882C262.098 198.609 262.784 201.319 264.223 203.641C265.534 205.468 267.817 206.386 271.074 206.396C274.172 206.396 276.356 205.477 277.627 203.641C278.977 201.503 279.642 199.004 279.533 196.477V174.139H287.53V196.775C287.673 200.112 286.911 203.426 285.326 206.366C283.961 208.752 281.876 210.644 279.369 211.772C276.598 212.952 273.608 213.531 270.597 213.47C267.325 213.59 264.082 212.818 261.215 211.236Z" fill="#F2F1F1"/>
<path d="M326.563 212.1V212.576H317.36L307.918 198.548H304.761V212.576H296.749V174.079H309.333C312.195 174.015 315.037 174.579 317.658 175.732C319.703 176.626 321.431 178.115 322.617 180.006C323.71 181.87 324.271 183.997 324.24 186.157C324.303 188.63 323.618 191.064 322.274 193.142C320.847 195.172 318.814 196.7 316.466 197.505L326.563 212.1ZM304.761 192.203H308.365C310.289 192.319 312.202 191.841 313.845 190.833C314.508 190.304 315.031 189.62 315.366 188.84C315.701 188.061 315.839 187.211 315.766 186.365C315.822 185.596 315.696 184.825 315.399 184.113C315.101 183.402 314.64 182.77 314.054 182.27C312.657 181.282 310.966 180.799 309.258 180.9H304.791L304.761 192.203Z" fill="#F2F1F1"/>
<path d="M333.593 212.576V174.079H341.59V212.576H333.593Z" fill="#F2F1F1"/>
<path d="M380.311 174.079V181.272H368.397V212.546H360.4V181.272H348.411V174.079H380.311Z" fill="#F2F1F1"/>
<path d="M387.207 212.576V174.079H395.204V212.576H387.207Z" fill="#F2F1F1"/>
<path d="M411.451 211.236C409.087 209.87 407.224 207.782 406.134 205.279C404.992 202.608 404.429 199.725 404.481 196.82V174.079H412.523V195.882C412.363 198.609 413.05 201.319 414.489 203.641C415.8 205.468 418.083 206.386 421.34 206.396C424.437 206.396 426.612 205.473 427.892 203.641C429.243 201.503 429.908 199.004 429.799 196.477V174.139H437.841V196.775C437.983 200.112 437.222 203.426 435.637 206.366C434.272 208.752 432.186 210.644 429.68 211.772C426.904 212.953 423.909 213.532 420.893 213.47C417.601 213.602 414.335 212.829 411.451 211.236Z" fill="#F2F1F1"/>
<path d="M443.976 208.764L447.685 202.896C450.786 205.07 454.457 206.287 458.243 206.396C460.034 206.485 461.818 206.116 463.426 205.324C464.011 205.023 464.5 204.563 464.834 203.996C465.169 203.429 465.337 202.779 465.317 202.122C465.345 201.351 465.131 200.591 464.707 199.947C464.125 199.243 463.392 198.678 462.562 198.294C461.535 197.758 460.001 197.073 457.946 196.239L456.605 195.703C454.548 194.912 452.557 193.961 450.648 192.858C449.192 191.985 447.963 190.781 447.059 189.344C446.113 187.704 445.653 185.829 445.734 183.938C445.664 181.772 446.384 179.655 447.759 177.981C449.147 176.353 450.947 175.129 452.971 174.436C455.155 173.678 457.451 173.295 459.762 173.305C462.035 173.325 464.29 173.697 466.449 174.407C468.792 175.157 471.01 176.251 473.032 177.653L469.294 183.461C467.747 182.472 466.106 181.638 464.394 180.974C462.912 180.447 461.35 180.185 459.777 180.2C458.324 180.103 456.874 180.434 455.607 181.153C455.173 181.421 454.815 181.796 454.567 182.241C454.32 182.687 454.191 183.189 454.193 183.7C454.182 184.353 454.386 184.991 454.773 185.516C455.335 186.2 456.043 186.749 456.844 187.125C458.242 187.837 459.684 188.459 461.162 188.986L462.428 189.463C464.47 190.226 466.46 191.122 468.385 192.144C469.934 192.998 471.248 194.22 472.213 195.703C473.303 197.623 473.842 199.807 473.771 202.014C473.7 204.222 473.022 206.366 471.81 208.213C470.431 210.013 468.566 211.382 466.434 212.159C463.98 213.064 461.38 213.508 458.765 213.47C453.446 213.61 448.236 211.952 443.976 208.764Z" fill="#F2F1F1"/>
</svg>
