<svg width="86" height="86" viewBox="0 0 86 86" fill="none" xmlns="http://www.w3.org/2000/svg">
<path opacity="0.65" fill-rule="evenodd" clip-rule="evenodd" d="M43 86C66.7482 86 86 66.7482 86 43C86 19.2518 66.7482 0 43 0C19.2518 0 0 19.2518 0 43C0 66.7482 19.2518 86 43 86ZM38.8945 27.549C45.8074 32.2374 52.5776 36.9163 57.7048 40.4713C58.6301 41.1131 59.1429 41.9728 59.1429 42.9318C59.1429 43.8908 58.6176 44.7844 57.6647 45.4432C53.9599 48.0021 50.2542 50.5579 46.5477 53.1104C44.0166 54.8508 41.4881 56.5928 38.962 58.3364C38.402 58.751 37.7209 58.9832 37.0162 59C36.5577 58.9973 36.1062 58.8903 35.6982 58.6876C34.5853 58.1524 34 57.1692 34 55.842V45.6006V39.7666V30.1717C34.005 28.4062 34.8303 27.2341 36.2109 27.0428C36.9862 26.9338 38.0992 27.0089 38.8945 27.549Z" fill="#F2F1F1"/>
</svg>
